<?xml version="1.0" encoding="utf-8"?>
<!-- Generator: Adobe Illustrator 22.1.0, SVG Export Plug-In . SVG Version: 6.00 Build 0)  -->
<svg version="1.1" id="Ebene_1" xmlns="http://www.w3.org/2000/svg" xmlns:xlink="http://www.w3.org/1999/xlink" x="0px" y="0px"
	 viewBox="0 0 1920 1080" style="enable-background:new 0 0 1920 1080;" xml:space="preserve">
<style type="text/css">
	.st0{fill:#1D5E77;}
	.st1{fill:#E5590C;}
	.st2{fill:#2F8EBC;}
	.st3{fill:#E4B198;}
	.st4{fill:#FFFFFF;}
	.st5{fill:#F48EC8;}
	.st6{fill:#EF8126;}
	.st7{fill:#ED751B;}
	.st8{fill:#D8661A;}
</style>
<g>
	<path class="st0" d="M1012.8,710.8H906.4c-9.6,0-17.4-7.8-17.4-17.4v-51.4c0-9.6,7.8-17.4,17.4-17.4h106.4
		c9.6,0,17.4,7.8,17.4,17.4v51.4C1030.2,703,1022.4,710.8,1012.8,710.8z"/>
	<path class="st1" d="M960,312.8c-41.4,0-75,33.6-75,75c0,40.2,31.7,73,71.4,74.9c-36.7-1.9-65.9-32.2-65.9-69.4
		c0-38.4,31.1-69.4,69.4-69.4s69.4,31.1,69.4,69.4c0,37.2-29.2,67.5-65.9,69.4c39.8-1.9,71.4-34.7,71.4-74.9
		C1035,346.4,1001.4,312.8,960,312.8z"/>
	<ellipse cx="960" cy="393.3" rx="70" ry="69.5"/>
	<path class="st2" d="M1030.2,658.5H889V486c0-14.6,11.9-26.5,26.5-26.5h88.3c14.6,0,26.5,11.9,26.5,26.5v172.5H1030.2z"/>
	<circle class="st3" cx="1020.8" cy="422.1" r="18.3"/>
	<circle class="st3" cx="896.3" cy="422.1" r="18.3"/>
	<path class="st3" d="M1023.6,391.5c-4-29.3-28.5-52.7-59.1-52.7h-10.3c-30.5,0-55.1,23.4-59.1,52.8c-0.7,5.5-0.8,11.2,0,16.9
		l4.5,33.5c4.1,30.3,29.3,52.8,59.1,52.8c28.9,0,53.7-21.3,58.7-50.6l5.8-33.5C1024.4,404.1,1024.4,397.6,1023.6,391.5z"/>
	<path d="M938.1,417H937c-3,0-5.5-2.5-5.5-5.5v-17.3c0-3,2.5-5.5,5.5-5.5h1.1c3,0,5.5,2.5,5.5,5.5v17.3
		C943.6,414.5,941.2,417,938.1,417z"/>
	<path d="M982.5,418h-1.1c-3,0-5.5-2.5-5.5-5.5v-17.3c0-3,2.5-5.5,5.5-5.5h1.1c3,0,5.5,2.5,5.5,5.5v17.3
		C988,415.5,985.5,418,982.5,418z"/>
	<path class="st2" d="M1096,494.5h-68.6c-9,0-16.3-7.3-16.3-16.3l0,0c0-9,7.3-16.3,16.3-16.3h68.6c9,0,16.3,7.3,16.3,16.3l0,0
		C1112.3,487.1,1105,494.5,1096,494.5z"/>
	<path class="st3" d="M1090.3,408l21.5,65.1c2.8,8.5-1.8,17.7-10.3,20.6l0,0c-8.5,2.8-17.7-1.8-20.6-10.3l-21.5-65.1
		c-2.8-8.5,1.8-17.7,10.3-20.6l0,0C1078.2,394.8,1087.5,399.5,1090.3,408z"/>
	<path d="M992,345c0,4.7-44.4,23.7-34,13.2c18-18.1-33-8.6-33-13.2c0-4.6,23.5-13.2,37-13.2S992,340.4,992,345z"/>
	<path class="st2" d="M840.1,530l39.3-56.2c5.2-7.4,15.3-9.2,22.7-4l0,0c7.4,5.2,9.2,15.3,4,22.7l-39.3,56.2
		c-5.2,7.4-15.3,9.2-22.7,4l0,0C836.8,547.5,835,537.5,840.1,530z"/>
	<path class="st3" d="M807,603.7l26.7-63.1c3.5-8.3,13.1-12.1,21.3-8.6l0,0c8.3,3.5,12.1,13.1,8.6,21.3l-26.7,63.1
		c-3.5,8.3-13.1,12.1-21.3,8.6l0,0C807.4,621.5,803.5,612,807,603.7z"/>
	<path class="st3" d="M796.1,615.7l15.3-9.7c7.5-4.8,17.6-2.6,22.4,5l0.1,0.1c4.8,7.5,2.6,17.6-5,22.4l-15.3,9.7
		c-7.5,4.8-17.6,2.6-22.4-5l-0.1-0.1C786.4,630.5,788.6,620.5,796.1,615.7z"/>
	<path class="st1" d="M1040.5,449h-2.6c-7.6,0-13.8-6.2-13.8-13.8v-35.5c0-7.6,6.2-13.8,13.8-13.8h2.6c7.6,0,13.8,6.2,13.8,13.8
		v35.5C1054.3,442.6,1048.1,449,1040.5,449z"/>
	<path class="st3" d="M1062.6,422.1l-13.5-12.1c-6.7-6-7.2-16.2-1.3-22.9l0.1-0.1c6-6.7,16.2-7.2,22.9-1.3l13.5,12.1
		c6.7,6,7.2,16.2,1.3,22.9l-0.1,0.1C1079.5,427.5,1069.3,428,1062.6,422.1z"/>
	<path class="st1" d="M859.8,433l-2.3-1.2c-6.8-3.5-9.4-11.9-5.9-18.7l16.4-31.5c3.5-6.8,11.9-9.4,18.7-5.9l2.3,1.2
		c6.8,3.5,9.4,11.9,5.9,18.7L878.5,427C874.9,433.9,866.5,436.5,859.8,433z"/>
	<g>
		<path d="M972.7,453c-0.4,0.4-0.9,0.7-1.4,0.7h-24.1c-0.5,0-1-0.2-1.4-0.7c-1.2,4.1-1.9,9.1-1.9,14.5v2.2c1.9-2.2,4.5-3.5,7.4-3.5
			h16.5c2.6,0,5,1.1,6.8,2.9v-1.6C974.6,462.1,973.9,457.1,972.7,453z"/>
		<path class="st4" d="M971.3,453.5c0.5,0,1-0.2,1.4-0.4c-2-4.4-5.2-7.2-8.9-7.2h-9c-3.7,0-6.9,2.9-8.9,7.2c0.4,0.3,0.9,0.4,1.4,0.4
			H971.3z"/>
		<g>
			<path class="st5" d="M972.8,473.8c0.2,0,0.4,0,0.5,0c0.8-1.1,1.3-2.5,1.3-3.8v-1.7c-1.8-2.5-12.4-3.9-15.4-3l0,0
				c-3-0.9-13.5,0.5-15.4,3.5v1.2c0,1.4,0.5,2.7,1.3,3.8c0,0,0,0,0.1,0H972.8z"/>
			<path class="st4" d="M954.7,478.8h9c4.1,0,7.8-2,9.6-4.9c-0.2,0-0.4-0.1-0.5-0.1h-27.6c0,0,0,0-0.1,0
				C946.9,476.8,950.6,478.8,954.7,478.8z"/>
		</g>
	</g>
	<rect x="684.5" y="663" class="st6" width="551" height="110"/>
	<rect x="684.5" y="663" class="st7" width="551" height="20.3"/>
	<rect x="759" y="650.8" class="st8" width="178.6" height="11"/>
	<rect x="972.4" y="650.8" class="st8" width="178.6" height="11"/>
	<rect x="759" y="644.8" width="179" height="4"/>
	<rect x="972" y="644.8" width="179" height="4"/>
	<rect x="848" y="640.8" width="3" height="10"/>
	<rect x="1060" y="639.8" width="3" height="11"/>
</g>
</svg>
