<?xml version="1.0" encoding="utf-8"?>
<!-- Generator: Adobe Illustrator 22.1.0, SVG Export Plug-In . SVG Version: 6.00 Build 0)  -->
<svg version="1.1" id="Ebene_1" xmlns="http://www.w3.org/2000/svg" xmlns:xlink="http://www.w3.org/1999/xlink" x="0px" y="0px"
	 viewBox="0 0 500 418" style="enable-background:new 0 0 500 418;" xml:space="preserve">
<style type="text/css">
	.st0{fill:#1D5E77;}
	.st1{fill:#E5590C;}
	.st2{fill:#2F8EBC;}
	.st3{fill:#E4B198;}
	.st4{fill:#FFFFFF;}
	.st5{fill:#F48EC8;}
	.st6{fill:#EF8126;}
	.st7{fill:#ED751B;}
	.st8{fill:#D8661A;}
</style>
<g>
	<path class="st0" d="M297.7,361.2h-96.6c-8.7,0-15.8-7.1-15.8-15.8v-46.7c0-8.7,7.1-15.8,15.8-15.8h96.6c8.7,0,15.8,7.1,15.8,15.8
		v46.7C313.5,354.1,306.4,361.2,297.7,361.2z"/>
	<path class="st1" d="M249.8,0c-37.6,0-68.1,30.5-68.1,68.1c0,36.5,28.8,66.3,64.8,68c-33.3-1.7-59.8-29.2-59.8-63
		c0-34.9,28.2-63,63-63s63,28.2,63,63c0,33.8-26.5,61.3-59.8,63c36.1-1.7,64.8-31.5,64.8-68C317.8,30.5,287.3,0,249.8,0z"/>
	<ellipse cx="249.8" cy="73.1" rx="63.5" ry="63.1"/>
	<path class="st2" d="M313.5,313.8H185.3V157.2c0-13.3,10.8-24.1,24.1-24.1h80.1c13.3,0,24.1,10.8,24.1,24.1L313.5,313.8
		L313.5,313.8z"/>
	<circle class="st3" cx="304.9" cy="99.2" r="16.6"/>
	<circle class="st3" cx="191.9" cy="99.2" r="16.6"/>
	<path class="st3" d="M307.5,71.4c-3.6-26.6-25.9-47.8-53.6-47.8h-9.3c-27.7,0-50,21.2-53.6,47.9c-0.6,5-0.7,10.2,0,15.3l4.1,30.4
		c3.7,27.5,26.6,47.9,53.6,47.9c26.2,0,48.7-19.3,53.3-45.9l5.3-30.4C308.2,82.9,308.2,77,307.5,71.4z"/>
	<path d="M229.9,94.6h-1c-2.7,0-5-2.3-5-5V73.9c0-2.7,2.3-5,5-5h1c2.7,0,5,2.3,5,5v15.7C234.9,92.3,232.7,94.6,229.9,94.6z"/>
	<path d="M270.2,95.5h-1c-2.7,0-5-2.3-5-5V74.8c0-2.7,2.3-5,5-5h1c2.7,0,5,2.3,5,5v15.7C275.2,93.2,272.9,95.5,270.2,95.5z"/>
	<path class="st2" d="M373.2,164.9h-62.3c-8.2,0-14.8-6.6-14.8-14.8l0,0c0-8.2,6.6-14.8,14.8-14.8h62.3c8.2,0,14.8,6.6,14.8,14.8
		l0,0C388,158.2,381.4,164.9,373.2,164.9z"/>
	<path class="st3" d="M368,86.4l19.5,59.1c2.5,7.7-1.6,16.1-9.3,18.7l0,0c-7.7,2.5-16.1-1.6-18.7-9.3L340,95.8
		c-2.5-7.7,1.6-16.1,9.3-18.7l0,0C357,74.4,365.5,78.7,368,86.4z"/>
	<path d="M278.8,29.2c0,4.3-40.3,21.5-30.9,12c16.3-16.4-30-7.8-30-12s21.3-12,33.6-12C263.8,17.2,278.8,25,278.8,29.2z"/>
	<path class="st2" d="M140.9,197.1l35.7-51c4.7-6.7,13.9-8.3,20.6-3.6l0,0c6.7,4.7,8.3,13.9,3.6,20.6l-35.7,51
		c-4.7,6.7-13.9,8.3-20.6,3.6l0,0C137.9,213,136.3,203.9,140.9,197.1z"/>
	<path class="st3" d="M110.9,264l24.2-57.3c3.2-7.5,11.9-11,19.3-7.8l0,0c7.5,3.2,11,11.9,7.8,19.3L138,275.5
		c-3.2,7.5-11.9,11-19.3,7.8l0,0C111.3,280.2,107.7,271.6,110.9,264z"/>
	<path class="st3" d="M101,274.9l13.9-8.8c6.8-4.4,16-2.4,20.3,4.5l0.1,0.1c4.4,6.8,2.4,16-4.5,20.3l-13.9,8.8
		c-6.8,4.4-16,2.4-20.3-4.5l-0.1-0.1C92.2,288.3,94.2,279.3,101,274.9z"/>
	<path class="st1" d="M322.8,123.6h-2.4c-6.9,0-12.5-5.6-12.5-12.5V78.9c0-6.9,5.6-12.5,12.5-12.5h2.4c6.9,0,12.5,5.6,12.5,12.5
		v32.2C335.3,117.8,329.7,123.6,322.8,123.6z"/>
	<path class="st3" d="M342.9,99.2l-12.3-11c-6.1-5.4-6.5-14.7-1.2-20.8l0.1-0.1c5.4-6.1,14.7-6.5,20.8-1.2l12.3,11
		c6.1,5.4,6.5,14.7,1.2,20.8l-0.1,0.1C358.2,104.1,349,104.6,342.9,99.2z"/>
	<path class="st1" d="M158.8,109.1l-2.1-1.1c-6.2-3.2-8.5-10.8-5.4-17l14.9-28.6c3.2-6.2,10.8-8.5,17-5.4l2.1,1.1
		c6.2,3.2,8.5,10.8,5.4,17l-14.9,28.5C172.5,109.9,164.9,112.3,158.8,109.1z"/>
	<g>
		<path d="M261.3,127.2c-0.4,0.4-0.8,0.6-1.3,0.6h-21.9c-0.5,0-0.9-0.2-1.3-0.6c-1.1,3.7-1.7,8.3-1.7,13.2v2c1.7-2,4.1-3.2,6.7-3.2
			h15c2.4,0,4.5,1,6.2,2.6v-1.5C263,135.5,262.4,131,261.3,127.2z"/>
		<path class="st4" d="M260,127.7c0.5,0,0.9-0.2,1.3-0.4c-1.8-4-4.7-6.5-8.1-6.5H245c-3.4,0-6.3,2.6-8.1,6.5
			c0.4,0.3,0.8,0.4,1.3,0.4H260z"/>
		<g>
			<path class="st5" d="M261.4,146.1c0.2,0,0.4,0,0.5,0c0.7-1,1.2-2.3,1.2-3.4v-1.5c-1.6-2.3-11.3-3.5-14-2.7l0,0
				c-2.7-0.8-12.3,0.5-14,3.2v1.1c0,1.3,0.5,2.5,1.2,3.4c0,0,0,0,0.1,0H261.4z"/>
			<path class="st4" d="M244.9,150.7h8.2c3.7,0,7.1-1.8,8.7-4.4c-0.2,0-0.4-0.1-0.5-0.1h-25c0,0,0,0-0.1,0
				C237.9,148.8,241.2,150.7,244.9,150.7z"/>
		</g>
	</g>
	<rect x="-0.3" y="317.8" class="st6" width="500.1" height="99.8"/>
	<rect x="-0.3" y="317.8" class="st7" width="500.1" height="18.4"/>
	<rect x="67.3" y="306.8" class="st8" width="162.1" height="10"/>
	<rect x="261" y="306.8" class="st8" width="162.1" height="10"/>
	<rect x="67.3" y="301.3" width="162.5" height="3.6"/>
	<rect x="260.6" y="301.3" width="162.5" height="3.6"/>
	<rect x="148.1" y="297.7" width="2.7" height="9.1"/>
	<rect x="340.5" y="296.8" width="2.7" height="10"/>
</g>
</svg>
