<?xml version="1.0" encoding="utf-8"?>
<!-- Generator: Adobe Illustrator 22.1.0, SVG Export Plug-In . SVG Version: 6.00 Build 0)  -->
<svg version="1.1" id="Ebene_1" xmlns="http://www.w3.org/2000/svg" xmlns:xlink="http://www.w3.org/1999/xlink" x="0px" y="0px"
	 viewBox="0 0 500 418" style="enable-background:new 0 0 500 418;" xml:space="preserve">
<style type="text/css">
	.st0{fill:#1D5E77;}
	.st1{fill:#E5590C;}
	.st2{fill:#2F8EBC;}
	.st3{fill:#E4B198;}
	.st4{fill:#FFFFFF;}
	.st5{fill:#F48EC8;}
	.st6{fill:#EF8126;}
	.st7{fill:#ED751B;}
	.st8{fill:#D8661A;}
	.st9{font-family:'PTSans-Bold';}
	.st10{font-size:38px;}
</style>
<g>
	<path class="st0" d="M298,361.4h-96.6c-8.7,0-15.8-7.1-15.8-15.8v-46.7c0-8.7,7.1-15.8,15.8-15.8H298c8.7,0,15.8,7.1,15.8,15.8
		v46.7C313.8,354.3,306.6,361.4,298,361.4z"/>
	<path class="st1" d="M250,0.2c-37.6,0-68.1,30.5-68.1,68.1c0,36.5,28.8,66.3,64.8,68c-33.3-1.7-59.8-29.2-59.8-63
		c0-34.9,28.2-63,63-63s63,28.2,63,63c0,33.8-26.5,61.3-59.8,63c36.1-1.7,64.8-31.5,64.8-68C318,30.7,287.5,0.2,250,0.2z"/>
	<ellipse cx="250" cy="73.3" rx="63.5" ry="63.1"/>
	<path class="st2" d="M313.8,314H185.5V157.4c0-13.3,10.8-24.1,24.1-24.1h80.1c13.3,0,24.1,10.8,24.1,24.1L313.8,314L313.8,314z"/>
	<circle class="st3" cx="305.1" cy="99.4" r="16.6"/>
	<circle class="st3" cx="192.1" cy="99.4" r="16.6"/>
	<path class="st3" d="M307.8,71.6c-3.6-26.6-25.9-47.8-53.6-47.8h-9.3c-27.7,0-50,21.2-53.6,47.9c-0.6,5-0.7,10.2,0,15.3l4.1,30.4
		c3.7,27.5,26.6,47.9,53.6,47.9c26.2,0,48.7-19.3,53.3-45.9l5.3-30.4C308.5,83.1,308.5,77.2,307.8,71.6z"/>
	<path d="M230.1,94.8h-1c-2.7,0-5-2.3-5-5V74.1c0-2.7,2.3-5,5-5h1c2.7,0,5,2.3,5,5v15.7C235.1,92.5,232.9,94.8,230.1,94.8z"/>
	<path d="M270.5,95.7h-1c-2.7,0-5-2.3-5-5V75c0-2.7,2.3-5,5-5h1c2.7,0,5,2.3,5,5v15.7C275.5,93.4,273.1,95.7,270.5,95.7z"/>
	<path class="st2" d="M373.5,165.1h-62.3c-8.2,0-14.8-6.6-14.8-14.8l0,0c0-8.2,6.6-14.8,14.8-14.8h62.3c8.2,0,14.8,6.6,14.8,14.8
		l0,0C388.3,158.4,381.6,165.1,373.5,165.1z"/>
	<path class="st3" d="M368.3,86.6l19.5,59.1c2.5,7.7-1.6,16.1-9.3,18.7l0,0c-7.7,2.5-16.1-1.6-18.7-9.3L340.3,96
		c-2.5-7.7,1.6-16.1,9.3-18.7l0,0C357.3,74.6,365.8,78.9,368.3,86.6z"/>
	<path d="M279,29.4c0,4.3-40.3,21.5-30.9,12c16.3-16.4-30-7.8-30-12s21.3-12,33.6-12S279,25.2,279,29.4z"/>
	<path class="st2" d="M141.1,197.3l35.7-51c4.7-6.7,13.9-8.3,20.6-3.6l0,0c6.7,4.7,8.3,13.9,3.6,20.6l-35.7,51
		c-4.7,6.7-13.9,8.3-20.6,3.6l0,0C138.1,213.2,136.5,204.1,141.1,197.3z"/>
	<path class="st3" d="M111.1,264.2l24.2-57.3c3.2-7.5,11.9-11,19.3-7.8l0,0c7.5,3.2,11,11.9,7.8,19.3l-24.2,57.3
		c-3.2,7.5-11.9,11-19.3,7.8l0,0C111.5,280.4,107.9,271.8,111.1,264.2z"/>
	<path class="st3" d="M101.2,275.1l13.9-8.8c6.8-4.4,16-2.4,20.3,4.5l0.1,0.1c4.4,6.8,2.4,16-4.5,20.3l-13.9,8.8
		c-6.8,4.4-16,2.4-20.3-4.5l-0.1-0.1C92.4,288.5,94.4,279.5,101.2,275.1z"/>
	<path class="st1" d="M323,123.8h-2.4c-6.9,0-12.5-5.6-12.5-12.5V79.1c0-6.9,5.6-12.5,12.5-12.5h2.4c6.9,0,12.5,5.6,12.5,12.5v32.2
		C335.5,118,330,123.8,323,123.8z"/>
	<path class="st3" d="M343.1,99.4l-12.3-11c-6.1-5.4-6.5-14.7-1.2-20.8l0.1-0.1c5.4-6.1,14.7-6.5,20.8-1.2l12.3,11
		c6.1,5.4,6.5,14.7,1.2,20.8l-0.1,0.1C358.5,104.3,349.3,104.8,343.1,99.4z"/>
	<path class="st1" d="M159,109.3l-2.1-1.1c-6.2-3.2-8.5-10.8-5.4-17l14.9-28.6c3.2-6.2,10.8-8.5,17-5.4l2.1,1.1
		c6.2,3.2,8.5,10.8,5.4,17L176,103.8C172.7,110.1,165.1,112.5,159,109.3z"/>
	<g>
		<path d="M261.5,127.4c-0.4,0.4-0.8,0.6-1.3,0.6h-21.9c-0.5,0-0.9-0.2-1.3-0.6c-1.1,3.7-1.7,8.3-1.7,13.2v2c1.7-2,4.1-3.2,6.7-3.2
			h15c2.4,0,4.5,1,6.2,2.6v-1.5C263.3,135.7,262.6,131.2,261.5,127.4z"/>
		<path class="st4" d="M260.3,127.9c0.5,0,0.9-0.2,1.3-0.4c-1.8-4-4.7-6.5-8.1-6.5h-8.2c-3.4,0-6.3,2.6-8.1,6.5
			c0.4,0.3,0.8,0.4,1.3,0.4H260.3z"/>
		<g>
			<path class="st5" d="M261.6,146.3c0.2,0,0.4,0,0.5,0c0.7-1,1.2-2.3,1.2-3.4v-1.5c-1.6-2.3-11.3-3.5-14-2.7l0,0
				c-2.7-0.8-12.3,0.5-14,3.2v1.1c0,1.3,0.5,2.5,1.2,3.4c0,0,0,0,0.1,0h25V146.3z"/>
			<path class="st4" d="M245.1,150.9h8.2c3.7,0,7.1-1.8,8.7-4.4c-0.2,0-0.4-0.1-0.5-0.1h-25c0,0,0,0-0.1,0
				C238.1,149,241.4,150.9,245.1,150.9z"/>
		</g>
	</g>
	<rect x="-0.1" y="318" class="st6" width="500.1" height="99.8"/>
	<rect x="-0.1" y="318" class="st7" width="500.1" height="18.4"/>
	<rect x="67.5" y="307" class="st8" width="162.1" height="10"/>
	<rect x="261.3" y="307" class="st8" width="162.1" height="10"/>
	<rect x="67.5" y="301.5" width="162.5" height="3.6"/>
	<rect x="260.9" y="301.5" width="162.5" height="3.6"/>
	<rect x="148.3" y="297.9" width="2.7" height="9.1"/>
	<rect x="340.8" y="297" width="2.7" height="10"/>
</g>
<text transform="matrix(1 0 0 1 189.2198 390.2488)" class="st4 st9 st10">DJ Masi</text>
</svg>
